<mxfile host="app.diagrams.net" modified="2022-07-14T06:04:50.380Z" agent="5.0 (Macintosh; Intel Mac OS X 10_15_7) AppleWebKit/537.36 (KHTML, like Gecko) Chrome/103.0.0.0 Safari/537.36" etag="4eUqD7Diqg1W0-mN1jUU" version="18.0.2" type="github">
  <diagram id="TJLz1f65jL5uEaRMiWld" name="Page-1">
    <mxGraphModel dx="1426" dy="769" grid="1" gridSize="10" guides="1" tooltips="1" connect="1" arrows="1" fold="1" page="1" pageScale="1" pageWidth="827" pageHeight="1169" math="0" shadow="0">
      <root>
        <mxCell id="0" />
        <mxCell id="1" parent="0" />
        <mxCell id="su3u-CIVc6lrLzEyy7IQ-83" value="" style="edgeStyle=none;rounded=0;orthogonalLoop=1;jettySize=auto;html=1;startArrow=none;startFill=0;endArrow=none;endFill=0;" edge="1" parent="1" source="su3u-CIVc6lrLzEyy7IQ-81" target="su3u-CIVc6lrLzEyy7IQ-82">
          <mxGeometry relative="1" as="geometry" />
        </mxCell>
        <mxCell id="su3u-CIVc6lrLzEyy7IQ-86" value="1" style="edgeLabel;html=1;align=center;verticalAlign=middle;resizable=0;points=[];" vertex="1" connectable="0" parent="su3u-CIVc6lrLzEyy7IQ-83">
          <mxGeometry x="0.1" y="-1" relative="1" as="geometry">
            <mxPoint as="offset" />
          </mxGeometry>
        </mxCell>
        <mxCell id="su3u-CIVc6lrLzEyy7IQ-81" value="任务" style="whiteSpace=wrap;html=1;align=center;" vertex="1" parent="1">
          <mxGeometry x="300" y="210" width="100" height="40" as="geometry" />
        </mxCell>
        <mxCell id="su3u-CIVc6lrLzEyy7IQ-85" value="" style="edgeStyle=none;rounded=0;orthogonalLoop=1;jettySize=auto;html=1;startArrow=none;startFill=0;endArrow=none;endFill=0;" edge="1" parent="1" source="su3u-CIVc6lrLzEyy7IQ-82" target="su3u-CIVc6lrLzEyy7IQ-84">
          <mxGeometry relative="1" as="geometry" />
        </mxCell>
        <mxCell id="su3u-CIVc6lrLzEyy7IQ-87" value="n" style="edgeLabel;html=1;align=center;verticalAlign=middle;resizable=0;points=[];" vertex="1" connectable="0" parent="su3u-CIVc6lrLzEyy7IQ-85">
          <mxGeometry x="0.0286" y="-1" relative="1" as="geometry">
            <mxPoint as="offset" />
          </mxGeometry>
        </mxCell>
        <mxCell id="su3u-CIVc6lrLzEyy7IQ-82" value="生成" style="rhombus;whiteSpace=wrap;html=1;" vertex="1" parent="1">
          <mxGeometry x="320" y="320" width="60" height="60" as="geometry" />
        </mxCell>
        <mxCell id="su3u-CIVc6lrLzEyy7IQ-84" value="任务执行记录" style="whiteSpace=wrap;html=1;" vertex="1" parent="1">
          <mxGeometry x="300" y="460" width="100" height="40" as="geometry" />
        </mxCell>
      </root>
    </mxGraphModel>
  </diagram>
</mxfile>
